<svg width="655" height="206" viewBox="0 0 655 206" fill="none" xmlns="http://www.w3.org/2000/svg">
<path d="M9.99999 0C4.47715 0 0 4.47715 0 10V30.7838C0 36.3066 4.47715 40.7838 10 40.7838H113.569C119.092 40.7838 123.569 45.2609 123.569 50.7838V82.1763H154.961C160.484 82.1763 164.961 77.6991 164.961 72.1763V10C164.961 4.47715 160.484 0 154.961 0H9.99999ZM123.569 82.1763H92.785C87.2621 82.1763 82.785 86.6534 82.785 92.1763V112.96C82.785 118.483 87.2622 122.96 92.785 122.96H113.569C119.092 122.96 123.569 118.483 123.569 112.96V82.1763ZM10.6087 122.96C5.08586 122.96 0.608714 127.437 0.608714 132.96V195.136C0.608714 200.659 5.08587 205.136 10.6087 205.136H154.353C159.875 205.136 164.353 200.659 164.353 195.136V174.353C164.353 168.83 159.875 164.353 154.353 164.353H51.3925C45.8697 164.353 41.3925 159.875 41.3925 154.353V132.96C41.3925 127.437 36.9153 122.96 31.3925 122.96H10.6087Z" fill="white"/>
<path d="M190.946 195.135C190.946 200.658 195.423 205.135 200.946 205.135H222.224C227.747 205.135 232.224 200.658 232.224 195.135V10.0752C232.224 4.55236 227.747 0.0751953 222.224 0.0751953H200.946C195.423 0.0751953 190.946 4.55235 190.946 10.0752V195.135Z" fill="white"/>
<path d="M500.547 0.0751953C495.024 0.0751953 490.547 4.55235 490.547 10.0752V195.212C490.547 200.734 495.024 205.212 500.547 205.212H521.939C527.462 205.212 531.939 200.734 531.939 195.212V50.859C531.939 45.3361 536.416 40.859 541.939 40.859H604.115C609.638 40.859 614.115 45.3361 614.115 50.859V195.212C614.115 200.734 618.593 205.212 624.115 205.212H644.899C650.422 205.212 654.899 200.734 654.899 195.212V10.0752C654.899 4.55235 650.422 0.0751953 644.899 0.0751953H500.547Z" fill="white"/>
<path d="M361.728 0.0751953C304.509 0.0751953 258.855 46.3374 258.855 102.948C258.855 159.558 304.509 205.212 361.728 205.212C418.338 205.212 463.992 159.558 463.992 102.948C463.992 46.3374 418.338 0.0751953 361.728 0.0751953ZM361.728 40.859C395.207 40.859 423.208 68.8598 423.208 102.948C423.208 137.036 395.207 164.428 361.728 164.428C327.64 164.428 299.639 137.036 299.639 102.948C299.639 68.8598 327.64 40.859 361.728 40.859Z" fill="white"/>
</svg>
